<?xml version="1.0" encoding="UTF-8"?>
<svg version="1.1" xmlns="http://www.w3.org/2000/svg" width="512" height="512">
<path d="M0 0 C1.28738697 -0.01303874 2.57477394 -0.02607747 3.90117264 -0.03951132 C5.33298335 -0.02870061 6.76479056 -0.01741731 8.19659424 -0.00571251 C9.71513174 -0.01147159 11.23366228 -0.01941128 12.75217819 -0.02934873 C16.9313863 -0.05027501 21.11002557 -0.03988097 25.28923607 -0.02441764 C29.79375492 -0.01313154 34.29817412 -0.03055317 38.80267334 -0.04431725 C47.62948059 -0.06658358 56.45607561 -0.06173338 65.28289127 -0.04725404 C72.45478626 -0.03597513 79.62662165 -0.03442505 86.79852295 -0.03987312 C88.32797708 -0.04102237 88.32797708 -0.04102237 89.88832927 -0.04219484 C91.95951622 -0.04379342 94.03070316 -0.04541448 96.10189009 -0.04705779 C115.53641837 -0.06132524 134.97082885 -0.04490695 154.40533781 -0.01805596 C171.09134949 0.00428371 187.77718726 0.00040386 204.4631958 -0.02264977 C223.82682282 -0.04939019 243.19034651 -0.05995185 262.55398941 -0.04458845 C264.61767831 -0.04299565 266.68136722 -0.0414238 268.74505615 -0.03987312 C270.26823082 -0.03871606 270.26823082 -0.03871606 271.82217669 -0.03753562 C278.98781989 -0.03321334 286.15339769 -0.04051652 293.31903076 -0.05227089 C302.04821075 -0.06627492 310.77716587 -0.06254021 319.50632 -0.03586717 C323.96255563 -0.02270064 328.41841595 -0.0176246 332.87464905 -0.03411293 C336.95082718 -0.04896725 341.02628068 -0.04090001 345.10239267 -0.01422517 C346.58011992 -0.00862086 348.05790787 -0.01152421 349.53559637 -0.02360411 C351.53821565 -0.03872464 353.54100544 -0.02028219 355.5435791 0 C356.65778858 0.00081176 357.77199806 0.00162352 358.91997147 0.00245988 C361.77178955 0.6292057 361.77178955 0.6292057 364.12784958 2.96320879 C369.51600472 11.70124375 365.2562964 27.08106456 363.09210205 36.53936195 C359.35907528 51.54314775 353.5517394 68.86094946 342.48931885 80.12310219 C334.52233683 88.33069229 331.45266089 94.52724168 331.41503906 106.02594948 C331.46949618 108.85524308 331.58438412 111.67721998 331.70928955 114.5042057 C331.81061733 118.27219249 331.8760665 122.03987465 331.9241333 125.8088932 C331.93916901 126.69266136 331.95420471 127.57642952 331.96969604 128.48697853 C331.99375639 134.88447249 331.09891438 140.05454722 327.77178955 145.6292057 C327.19428955 146.6810807 326.61678955 147.7329557 326.02178955 148.8167057 C319.14358952 157.41445574 311.25536795 162.14094068 300.27178955 163.5042057 C290.42675336 164.04422879 282.62157517 161.64780153 274.77178955 155.6292057 C269.56105027 150.7634899 266.38350587 146.20242444 263.77178955 139.6292057 C263.08367187 139.85060219 262.3955542 140.07199867 261.68658447 140.30010414 C238.42161577 147.74086791 238.42161577 147.74086791 227.02178955 150.1292057 C225.89099976 150.36848793 225.89099976 150.36848793 224.73736572 150.61260414 C220.68075552 151.41512257 216.89556607 151.68463673 212.77178955 151.6292057 C212.79535522 152.94356606 212.79535522 152.94356606 212.81939697 154.28447914 C212.87110398 157.59460021 212.90841587 160.90428053 212.93658447 164.21465492 C212.95149656 165.63627411 212.97183364 167.05784877 212.99810791 168.47930336 C213.24960383 182.45458629 212.06092149 194.74373334 202.1428833 205.37529945 C194.60398647 212.38944709 185.56209704 214.9901524 175.45147705 214.8401432 C166.21079842 214.11274285 158.1503524 210.22032015 151.7600708 203.5198307 C144.70641856 194.94306278 142.62859317 186.28273026 142.6741333 175.2620182 C142.67625572 174.24263664 142.67625572 174.24263664 142.67842102 173.20266151 C142.68397437 171.05312958 142.69651786 168.90370563 142.70928955 166.7542057 C142.71431059 165.28806139 142.71887244 163.82191542 142.72296143 162.3557682 C142.73392844 158.78021287 142.75116036 155.20471985 142.77178955 151.6292057 C142.09374268 151.58239662 141.4156958 151.53558754 140.71710205 151.48736 C134.23050792 150.97806803 128.08322933 150.00387086 121.77178955 148.4417057 C120.88402832 148.2268351 119.99626709 148.01196449 119.081604 147.79058266 C109.84332237 145.49756611 100.80035587 142.6318489 91.77178955 139.6292057 C91.49206299 140.26986977 91.21233643 140.91053383 90.9241333 141.57061195 C85.8569583 152.50332714 79.18080495 158.43327015 67.77178955 162.6292057 C57.75730686 164.94821269 47.71181232 163.37123678 38.95928955 157.9417057 C30.98027742 152.044175 25.88258084 145.42803958 23.77178955 135.6292057 C23.5138505 132.27364035 23.49629164 128.93493595 23.51397705 125.57061195 C23.51833267 124.65449638 23.52268829 123.73838081 23.5271759 122.79450417 C23.56218276 118.96227552 23.61849403 115.13253187 23.73370361 111.30181313 C24.37150303 97.48676621 24.37150303 97.48676621 18.0413208 85.7620182 C16.30521209 84.03038241 14.55079252 82.31674367 12.77178955 80.6292057 C10.86952803 78.16591242 9.20897539 75.59439281 7.58428955 72.9417057 C6.96904419 71.94070839 6.96904419 71.94070839 6.34136963 70.91948891 C-3.81782671 53.88293158 -10.25898435 33.37528689 -10.54071045 13.5042057 C-10.56971436 12.81455727 -10.59871826 12.12490883 -10.62860107 11.41436195 C-10.67114517 7.99119845 -10.37999742 5.87899944 -8.59086227 2.93464434 C-5.57152213 -0.01158047 -4.16941648 0.00303764 0 0 Z " fill="#EAE4DC" transform="translate(78.22821044921875,-0.6292057037353516)"/>
<path d="M0 0 C0.80011727 -0.00453111 1.60023455 -0.00906223 2.4245978 -0.01373065 C5.11463072 -0.02642483 7.80446248 -0.02475106 10.49452209 -0.02310181 C12.41948712 -0.02908388 14.34444974 -0.03588868 16.26940918 -0.04345703 C21.50488311 -0.06115577 26.7402917 -0.06581401 31.97579265 -0.0670886 C36.34229494 -0.06898531 40.70878193 -0.07634011 45.07527834 -0.08343279 C55.3742138 -0.09972867 65.67311429 -0.10460061 75.97206116 -0.10317993 C86.60635387 -0.10197781 97.24044384 -0.12309092 107.87468523 -0.15466726 C116.99661083 -0.18079077 126.11847006 -0.1915489 135.2404328 -0.19026911 C140.69223085 -0.18975837 146.14384877 -0.19550342 151.59560966 -0.21662521 C156.7215206 -0.23594184 161.84707833 -0.23617726 166.97300148 -0.22159195 C168.85640858 -0.21949464 170.7398374 -0.22425932 172.62320709 -0.23631287 C175.19038633 -0.25168124 177.75633482 -0.24251379 180.32348633 -0.22705078 C181.07241447 -0.23733791 181.82134261 -0.24762503 182.59296554 -0.25822389 C186.06390861 -0.21188017 187.88629675 0.00173712 190.65659428 2.17333031 C193.7488464 6.3014078 193.42010209 10.04758535 193.46351624 15.03695679 C193.47158798 15.91011032 193.47965973 16.78326385 193.48797607 17.68287659 C193.50181862 19.53306084 193.51254002 21.38327065 193.520401 23.23348999 C193.53760419 26.05844751 193.58148665 28.88223175 193.62562561 31.70687866 C193.63575346 33.5043961 193.64426927 35.30192348 193.65101624 37.09945679 C193.66852432 37.94232742 193.68603241 38.78519806 193.70407104 39.65361023 C193.68907064 43.72471039 193.54888448 45.7550463 191.32362366 49.27792358 C186.72190328 53.64085778 181.22659501 52.33126979 175.22523499 52.26742554 C175.23683655 53.03401489 175.24843811 53.80060425 175.26039124 54.59042358 C175.33223743 63.13306479 174.88741555 71.56553629 174.22523499 80.07992554 C174.12984436 81.35674194 174.03445374 82.63355835 173.93617249 83.94906616 C173.70347809 87.05553632 173.46643873 90.16160654 173.22523499 93.26742554 C174.32996155 93.40019897 175.43468811 93.53297241 176.57289124 93.66976929 C180.22523499 94.26742554 180.22523499 94.26742554 182.66273499 95.82992554 C184.48282806 98.66927073 184.85932701 100.92820116 184.67054749 104.29476929 C183.87045002 107.83906069 182.1557573 109.2721763 179.22523499 111.26742554 C176.89324395 111.34655991 174.55691267 111.35530974 172.22523499 111.26742554 C172.1795639 112.07651367 172.13389282 112.88560181 172.08683777 113.71920776 C171.65362491 121.36957113 171.2130216 129.01945703 170.76425362 136.66892242 C170.53383264 140.60095261 170.30620392 144.53310184 170.08509827 148.46566772 C169.87134129 152.26565476 169.65006453 156.06513799 169.4237175 159.86439514 C169.33895085 161.30899299 169.25682754 162.75374861 169.17747879 164.19865417 C168.16485098 182.56133659 168.16485098 182.56133659 165.02248287 186.94546604 C162.44317018 188.84267061 160.53175373 188.64786818 157.34866333 188.65510559 C155.50844856 188.66996254 155.50844856 188.66996254 153.63105774 188.68511963 C152.26930137 188.68088137 150.90754597 188.67632349 149.54579163 188.67147827 C148.11342841 188.67717975 146.68106974 188.68414314 145.24871826 188.692276 C141.3561242 188.71024782 137.46375507 188.70903149 133.57113194 188.70333362 C130.32301784 188.70024741 127.0749473 188.7063279 123.82683939 188.71237236 C116.16476071 188.72642932 108.5027935 188.72484674 100.8407135 188.71347046 C92.93295625 188.70198894 85.02553812 188.71606263 77.11782557 188.74286693 C70.33132252 188.76501048 63.54492603 188.77166434 56.75838941 188.76579052 C52.70386509 188.76241637 48.64955816 188.76486609 44.59506416 188.78204155 C40.78233386 188.79748728 36.97010657 188.79358211 33.15739632 188.7747364 C31.75776263 188.7710438 30.35809187 188.77417859 28.95849228 188.78462219 C27.04862954 188.79778566 25.13863731 188.78390525 23.22879028 188.76863098 C21.62518442 188.76831706 21.62518442 188.76831706 19.98918247 188.76799679 C16.48821227 188.13394529 15.32745108 187.10368068 13.22523499 184.26742554 C12.61146736 182.06363869 12.61146736 182.06363869 12.45011902 179.64672852 C12.38051908 178.73965841 12.31091915 177.83258831 12.23921013 176.89803123 C12.18319696 175.92245577 12.1271838 174.9468803 12.06947327 173.94174194 C11.99629442 172.91949335 11.92311558 171.89724476 11.84771919 170.84401894 C11.62319919 167.65271392 11.42351091 164.46045537 11.22523499 161.26742554 C11.09495771 159.37478775 10.963005 157.48226436 10.82917786 155.58987427 C10.43189505 149.88764741 10.07242907 144.18335531 9.71742249 138.47836304 C9.58588315 136.3900272 9.45421733 134.30169933 9.32243347 132.21337891 C9.05003623 127.88596941 8.77972943 123.55843572 8.51087952 119.23080444 C8.16816046 113.71822776 7.81916322 108.20606825 7.46851921 102.69399071 C7.196287 98.40107749 6.92783655 94.10793384 6.66044998 89.81471634 C6.5333384 87.78230515 6.4049804 85.74997147 6.27528 83.71772385 C5.60710487 73.22078994 5.00527431 62.79064545 5.22523499 52.26742554 C4.3551178 52.3085144 3.48500061 52.34960327 2.58851624 52.39193726 C-5.96498009 52.74376961 -5.96498009 52.74376961 -9.96226501 50.39242554 C-13.42258527 46.33549834 -12.93605859 42.57386444 -12.94273376 37.46273804 C-12.94772636 36.14945023 -12.94772636 36.14945023 -12.95281982 34.80963135 C-12.95788772 32.95523606 -12.96022819 31.10083164 -12.96006775 29.24642944 C-12.96225085 26.41082684 -12.98039854 23.57561534 -12.99937439 20.74008179 C-13.00230902 18.93930187 -13.00429335 17.1385201 -13.00523376 15.33773804 C-13.01241928 14.48970612 -13.0196048 13.64167419 -13.02700806 12.76794434 C-13.02239311 11.57683548 -13.02239311 11.57683548 -13.01768494 10.36166382 C-13.01910995 9.66598297 -13.02053497 8.97030212 -13.02200317 8.25354004 C-12.72369841 5.85719711 -12.05644971 4.31090762 -10.77476501 2.26742554 C-7.078642 -0.19665647 -4.27577841 -0.01763004 0 0 Z " fill="#000001" transform="translate(165.77476501464844,323.7325744628906)"/>
<path d="M0 0 C1.28738697 -0.01303874 2.57477394 -0.02607747 3.90117264 -0.03951132 C5.33298335 -0.02870061 6.76479056 -0.01741731 8.19659424 -0.00571251 C9.71513174 -0.01147159 11.23366228 -0.01941128 12.75217819 -0.02934873 C16.9313863 -0.05027501 21.11002557 -0.03988097 25.28923607 -0.02441764 C29.79375492 -0.01313154 34.29817412 -0.03055317 38.80267334 -0.04431725 C47.62948059 -0.06658358 56.45607561 -0.06173338 65.28289127 -0.04725404 C72.45478626 -0.03597513 79.62662165 -0.03442505 86.79852295 -0.03987312 C88.32797708 -0.04102237 88.32797708 -0.04102237 89.88832927 -0.04219484 C91.95951622 -0.04379342 94.03070316 -0.04541448 96.10189009 -0.04705779 C115.53641837 -0.06132524 134.97082885 -0.04490695 154.40533781 -0.01805596 C171.09134949 0.00428371 187.77718726 0.00040386 204.4631958 -0.02264977 C223.82682282 -0.04939019 243.19034651 -0.05995185 262.55398941 -0.04458845 C264.61767831 -0.04299565 266.68136722 -0.0414238 268.74505615 -0.03987312 C270.26823082 -0.03871606 270.26823082 -0.03871606 271.82217669 -0.03753562 C278.98781989 -0.03321334 286.15339769 -0.04051652 293.31903076 -0.05227089 C302.04821075 -0.06627492 310.77716587 -0.06254021 319.50632 -0.03586717 C323.96255563 -0.02270064 328.41841595 -0.0176246 332.87464905 -0.03411293 C336.95082718 -0.04896725 341.02628068 -0.04090001 345.10239267 -0.01422517 C346.58011992 -0.00862086 348.05790787 -0.01152421 349.53559637 -0.02360411 C351.53821565 -0.03872464 353.54100544 -0.02028219 355.5435791 0 C356.65778858 0.00081176 357.77199806 0.00162352 358.91997147 0.00245988 C361.77178955 0.6292057 361.77178955 0.6292057 364.12784958 2.96320879 C369.51600472 11.70124375 365.2562964 27.08106456 363.09210205 36.53936195 C359.35907528 51.54314775 353.5517394 68.86094946 342.48931885 80.12310219 C334.52233683 88.33069229 331.45266089 94.52724168 331.41503906 106.02594948 C331.46949618 108.85524308 331.58438412 111.67721998 331.70928955 114.5042057 C331.81061733 118.27219249 331.8760665 122.03987465 331.9241333 125.8088932 C331.93916901 126.69266136 331.95420471 127.57642952 331.96969604 128.48697853 C331.99375639 134.88447249 331.09891438 140.05454722 327.77178955 145.6292057 C327.19428955 146.6810807 326.61678955 147.7329557 326.02178955 148.8167057 C319.14358952 157.41445574 311.25536795 162.14094068 300.27178955 163.5042057 C290.42675336 164.04422879 282.62157517 161.64780153 274.77178955 155.6292057 C269.56105027 150.7634899 266.38350587 146.20242444 263.77178955 139.6292057 C263.08367187 139.85060219 262.3955542 140.07199867 261.68658447 140.30010414 C238.42161577 147.74086791 238.42161577 147.74086791 227.02178955 150.1292057 C225.89099976 150.36848793 225.89099976 150.36848793 224.73736572 150.61260414 C220.68075552 151.41512257 216.89556607 151.68463673 212.77178955 151.6292057 C212.79535522 152.94356606 212.79535522 152.94356606 212.81939697 154.28447914 C212.87110398 157.59460021 212.90841587 160.90428053 212.93658447 164.21465492 C212.95149656 165.63627411 212.97183364 167.05784877 212.99810791 168.47930336 C213.24960383 182.45458629 212.06092149 194.74373334 202.1428833 205.37529945 C194.60398647 212.38944709 185.56209704 214.9901524 175.45147705 214.8401432 C166.21079842 214.11274285 158.1503524 210.22032015 151.7600708 203.5198307 C144.70641856 194.94306278 142.62859317 186.28273026 142.6741333 175.2620182 C142.67625572 174.24263664 142.67625572 174.24263664 142.67842102 173.20266151 C142.68397437 171.05312958 142.69651786 168.90370563 142.70928955 166.7542057 C142.71431059 165.28806139 142.71887244 163.82191542 142.72296143 162.3557682 C142.73392844 158.78021287 142.75116036 155.20471985 142.77178955 151.6292057 C142.09374268 151.58239662 141.4156958 151.53558754 140.71710205 151.48736 C134.23050792 150.97806803 128.08322933 150.00387086 121.77178955 148.4417057 C120.88402832 148.2268351 119.99626709 148.01196449 119.081604 147.79058266 C109.84332237 145.49756611 100.80035587 142.6318489 91.77178955 139.6292057 C91.49206299 140.26986977 91.21233643 140.91053383 90.9241333 141.57061195 C85.8569583 152.50332714 79.18080495 158.43327015 67.77178955 162.6292057 C57.75730686 164.94821269 47.71181232 163.37123678 38.95928955 157.9417057 C30.98027742 152.044175 25.88258084 145.42803958 23.77178955 135.6292057 C23.5138505 132.27364035 23.49629164 128.93493595 23.51397705 125.57061195 C23.51833267 124.65449638 23.52268829 123.73838081 23.5271759 122.79450417 C23.56218276 118.96227552 23.61849403 115.13253187 23.73370361 111.30181313 C24.37150303 97.48676621 24.37150303 97.48676621 18.0413208 85.7620182 C16.30521209 84.03038241 14.55079252 82.31674367 12.77178955 80.6292057 C10.86952803 78.16591242 9.20897539 75.59439281 7.58428955 72.9417057 C6.96904419 71.94070839 6.96904419 71.94070839 6.34136963 70.91948891 C-3.81782671 53.88293158 -10.25898435 33.37528689 -10.54071045 13.5042057 C-10.56971436 12.81455727 -10.59871826 12.12490883 -10.62860107 11.41436195 C-10.67114517 7.99119845 -10.37999742 5.87899944 -8.59086227 2.93464434 C-5.57152213 -0.01158047 -4.16941648 0.00303764 0 0 Z M7.77178955 17.6292057 C9.81705126 42.17234619 20.04713196 63.71181566 36.9866333 81.6682682 C39.57057479 84.50664595 39.89668958 86.10479304 39.91363525 89.84429359 C39.92066971 90.71602715 39.92770416 91.5877607 39.93495178 92.48591042 C39.93911606 93.43167442 39.94328033 94.37743843 39.9475708 95.35186195 C39.97078504 97.35512748 39.994903 99.35838271 40.01983643 101.36162758 C40.05483047 104.51916676 40.08422385 107.67633097 40.09771729 110.83403969 C40.1132919 113.88211173 40.15357961 116.92908415 40.1975708 119.97686195 C40.19566238 120.90845634 40.19375397 121.84005074 40.19178772 122.79987526 C40.32472612 130.0050555 41.91149382 136.19317593 46.5960083 141.82061195 C50.92466872 145.00585264 54.17334286 146.43652946 59.6038208 146.01592445 C66.44106897 144.79630721 69.8828219 142.07376041 73.77178955 136.6292057 C75.71847097 133.39839759 76.01296262 130.87635965 76.14678955 127.1292057 C76.42231494 123.63143427 76.57076958 121.94934861 78.45928955 118.9417057 C81.55428668 117.18508571 83.21258273 117.30564145 86.77178955 117.6292057 C89.74022555 118.63408481 92.55138266 119.94614858 95.39678955 121.2542057 C110.76516793 127.98113548 126.25674121 132.02851915 142.7835083 134.7698307 C146.10448793 135.33417176 149.42314147 135.9026205 152.7288208 136.5510807 C153.43627441 136.68611 154.14372803 136.8211393 154.87261963 136.96026039 C157.22065981 137.78731144 158.20269858 138.701635 159.77178955 140.6292057 C160.13687134 142.6065464 160.13687134 142.6065464 160.12481689 144.88189125 C160.1284726 145.73675621 160.1321283 146.59162117 160.13589478 147.47239113 C160.12659943 148.39425713 160.11730408 149.31612312 160.10772705 150.26592445 C160.12024613 152.2249121 160.13328355 154.18389649 160.14678955 156.14287758 C160.15070982 159.22592254 160.14682796 162.3086432 160.13214111 165.39165688 C160.12352803 168.37106534 160.14533322 171.34913369 160.17022705 174.32842445 C160.15688324 175.2401693 160.14353943 176.15191414 160.12979126 177.09128761 C160.20305644 183.49554626 161.73630503 187.63378684 165.77178955 192.6292057 C169.89436049 196.50192386 174.01993293 197.01343833 179.6194458 196.89873695 C184.24040459 196.32006879 188.10918679 194.50689865 191.21794128 190.99596596 C194.94161714 185.42137079 195.45806396 180.97204091 195.3381958 174.3635807 C195.34383041 173.407761 195.34946503 172.4519413 195.35527039 171.46715736 C195.37163352 168.43733095 195.35623395 165.40897996 195.33428955 162.3792057 C195.31768901 159.33529296 195.30858676 156.29233478 195.32402039 153.24840736 C195.33329553 151.36083107 195.32415197 149.47305204 195.29438782 147.58568764 C195.32059462 141.32863895 195.32059462 141.32863895 197.40167236 138.10259438 C200.35304645 136.26786604 202.68446371 135.799017 206.1272583 135.32061195 C208.00791992 135.04060341 208.00791992 135.04060341 209.92657471 134.75493813 C210.58522522 134.6634449 211.24387573 134.57195168 211.92248535 134.47768593 C215.34921012 133.99655204 218.76543489 133.45104437 222.1819458 132.9026432 C222.85102966 132.7956057 223.52011353 132.68856819 224.20947266 132.57828712 C239.52815758 130.07485232 254.89905888 124.56557104 268.77178955 117.6292057 C272.13890147 117.26321528 274.11239854 117.25495675 277.08428955 118.9417057 C278.97068224 121.94596073 279.02570567 123.3959432 279.20928955 126.8792057 C279.61889568 134.01397301 282.222824 138.31735322 287.45928955 143.0667057 C292.12814002 146.2213344 296.22610113 146.3578363 301.77178955 145.6292057 C307.49726513 143.23160286 311.38822147 139.85278974 313.84039307 134.13945961 C315.0770316 129.47880724 314.91652027 125.19694429 314.7991333 120.4026432 C314.78532003 118.38052468 314.77434337 116.35838516 314.76593018 114.33623695 C314.74561997 111.17518617 314.70966704 108.0182238 314.62457275 104.85820961 C314.1400688 85.35272235 314.1400688 85.35272235 319.4903717 79.18387794 C321.82038209 76.87861349 324.28916756 74.76934432 326.77178955 72.6292057 C328.9446999 69.87135941 330.75066526 66.96960908 332.52178955 63.9417057 C332.97296143 63.18333412 333.4241333 62.42496254 333.88897705 61.64361 C341.71925249 48.13778314 347.77178955 33.45419934 347.77178955 17.6292057 C235.57178955 17.6292057 123.37178955 17.6292057 7.77178955 17.6292057 Z " fill="#000000" transform="translate(78.22821044921875,-0.6292057037353516)"/>
<path d="M0 0 C22.77 0 45.54 0 69 0 C71.97 5.28 74.94 10.56 78 16 C80.93902072 19.86501355 83.75830117 23.43647187 87 27 C87.61101562 27.69222656 88.22203125 28.38445312 88.8515625 29.09765625 C98.40053763 39.31709133 110.4073627 46.24554635 123 52 C123.95003906 52.43441406 124.90007812 52.86882812 125.87890625 53.31640625 C127.91117608 54.22917846 129.95412031 55.1181553 132 56 C132.2441684 67.07014703 131.57779851 78.00876204 130.77319336 89.04321289 C130.56114136 91.95616358 130.35716277 94.86959965 130.15429688 97.78320312 C130.02130201 99.65628334 129.88785473 101.52933149 129.75390625 103.40234375 C129.6934462 104.2628685 129.63298615 105.12339325 129.57069397 106.00999451 C129.51070724 106.82517044 129.45072052 107.64034637 129.38891602 108.48022461 C129.33784195 109.18634384 129.28676788 109.89246307 129.23414612 110.61997986 C128.92538389 113.75844883 128.44598927 116.87807508 128 120 C88.07 120 48.14 120 7 120 C5.845 101.870625 4.69 83.74125 3.5 65.0625 C3.13455078 59.34945557 2.76910156 53.63641113 2.39257812 47.75024414 C1.94824219 40.74499512 1.94824219 40.74499512 1.74060059 37.45994568 C1.5958114 35.1777747 1.44990534 32.89567441 1.30310059 30.6136322 C1.08026809 27.14631178 0.86104009 23.67877982 0.64257812 20.21118164 C0.57699959 19.20367639 0.51142105 18.19617113 0.44385529 17.15813541 C0.38507957 16.2137231 0.32630386 15.26931078 0.26574707 14.29627991 C0.21412666 13.48602387 0.16250626 12.67576784 0.10932159 11.8409586 C-0.04245467 7.89672332 0 3.94715441 0 0 Z " fill="#56A2FD" transform="translate(188,375)"/>
<path d="M0 0 C3.85223916 3.30539133 6.76767485 7.16854736 9.5625 11.375 C10.19007202 12.31883545 10.19007202 12.31883545 10.83032227 13.28173828 C14.71664529 19.29013737 18.11031757 25.54355412 21.4375 31.875 C21.94547119 32.83712402 22.45344238 33.79924805 22.97680664 34.79052734 C28.74688366 45.9864301 32.78039967 56.89928813 29.78515625 69.5546875 C26.69745358 79.17111471 20.763369 86.26793507 11.8125 90.875 C2.89735324 95.11495956 -7.30016964 95.52820996 -16.75 92.5625 C-26.33865201 88.50956461 -32.7425242 81.45392296 -36.9375 72.0390625 C-41.83857294 58.0205524 -36.34653993 45.90073239 -30.26196289 33.22900391 C-12.25816634 -2.95962935 -12.25816634 -2.95962935 0 0 Z " fill="#000000" transform="translate(260,222)"/>
<path d="M0 0 C25.41 0 50.82 0 77 0 C79 10 79 10 79 17 C52.93 17 26.86 17 0 17 C0 11.39 0 5.78 0 0 Z " fill="#005BC9" transform="translate(171,341)"/>
<path d="M0 0 C25.08 0 50.16 0 76 0 C76 5.61 76 11.22 76 17 C51.91 17 27.82 17 3 17 C0 6 0 6 0 0 Z " fill="#005BC9" transform="translate(265,341)"/>
<path d="M0 0 C3.738107 1.24603567 3.97898569 2.23747302 5.8125 5.62890625 C6.58980469 7.05879883 6.58980469 7.05879883 7.3828125 8.51757812 C8.18332031 10.02481445 8.18332031 10.02481445 9 11.5625 C9.53367187 12.54025391 10.06734375 13.51800781 10.6171875 14.52539062 C18.88582273 29.87995829 18.88582273 29.87995829 18 38 C15.89551948 44.78110391 12.74438566 47.98379234 6.5625 51.3125 C2.40982901 52.42663124 -1.06265146 52.87797443 -5.0859375 51.0546875 C-9.73120642 48.30897093 -13.68494875 45.28762813 -15.75 40.125 C-15.8325 39.42375 -15.915 38.7225 -16 38 C-16.12375 37.01 -16.2475 36.02 -16.375 35 C-16.11959307 24.89014253 -7.1223315 7.1223315 0 0 Z " fill="#B9F8FA" transform="translate(255,247)"/>
<path d="M0 0 C15.84 0 31.68 0 48 0 C46.83928571 26.69642857 46.83928571 26.69642857 46 38 C28.63901612 35.62359156 13.50857661 19.71237461 3.265625 6.81640625 C0 2.40414326 0 2.40414326 0 0 Z " fill="#539DF5" transform="translate(276,375)"/>
</svg>
